<?xml version="1.0" encoding="UTF-8" standalone="no"?>
<!-- Created with Inkscape (http://www.inkscape.org/) -->

<svg
   xmlns:dc="http://purl.org/dc/elements/1.1/"
   xmlns:cc="http://creativecommons.org/ns#"
   xmlns:rdf="http://www.w3.org/1999/02/22-rdf-syntax-ns#"
   xmlns:svg="http://www.w3.org/2000/svg"
   xmlns="http://www.w3.org/2000/svg"
   xmlns:sodipodi="http://sodipodi.sourceforge.net/DTD/sodipodi-0.dtd"
   xmlns:inkscape="http://www.inkscape.org/namespaces/inkscape"
   id="svg2"
   version="1.1"
   inkscape:version="0.48.5 r10040"
   width="354.32501"
   height="235.33"
   xml:space="preserve"
   sodipodi:docname="logo Netex_vector.ai"><metadata
     id="metadata8"><rdf:RDF><cc:Work
         rdf:about=""><dc:format>image/svg+xml</dc:format><dc:type
           rdf:resource="http://purl.org/dc/dcmitype/StillImage" /><dc:title></dc:title></cc:Work></rdf:RDF></metadata><defs
     id="defs6"><clipPath
       clipPathUnits="userSpaceOnUse"
       id="clipPath16"><path
         d="m 0,283.46 283.46,0 L 283.46,0 0,0 0,283.46 z"
         id="path18"
         inkscape:connector-curvature="0" /></clipPath></defs><sodipodi:namedview
     pagecolor="#ffffff"
     bordercolor="#666666"
     borderopacity="1"
     objecttolerance="10"
     gridtolerance="10"
     guidetolerance="10"
     inkscape:pageopacity="0"
     inkscape:pageshadow="2"
     inkscape:window-width="1920"
     inkscape:window-height="1031"
     id="namedview4"
     showgrid="false"
     inkscape:zoom="0.66605515"
     inkscape:cx="177.16251"
     inkscape:cy="177.16251"
     inkscape:window-x="0"
     inkscape:window-y="0"
     inkscape:window-maximized="1"
     inkscape:current-layer="g10" /><g
     id="g10"
     inkscape:groupmode="layer"
     inkscape:label="logo Netex_vector"
     transform="matrix(1.25,0,0,-1.25,0,235.331)"><g
       id="g12"
       inkscape:export-xdpi="90"
       inkscape:export-ydpi="90"
       transform="translate(0,-44.839663)"><g
         id="g14"
         clip-path="url(#clipPath16)"><g
           id="g20"
           transform="translate(130.439,171.2417)"><path
             d="m 0,0 c 59.514,31.098 120.445,29.371 134.332,4.883 10.113,-17.827 -9.811,-48.126 -44.361,-75.292 l -3.579,5.44 c 31.944,24.232 52.615,51.11 43.731,66.768 -12.445,21.936 -56.798,15.843 -117.119,-11.515 -60.327,-27.357 -104.796,-71.15 -91.239,-92.159 13.492,-20.909 68.097,-17.946 121.155,9.525 l 2.997,-6.395 C -13.604,-129.844 -74.126,-123.633 -86.278,-100.389 -98.417,-77.145 -59.523,-31.103 0,0"
             style="fill:#d7d4d4;fill-opacity:1;fill-rule:evenodd;stroke:none"
             id="path22"
             inkscape:connector-curvature="0" /></g><g
           id="g24"
           transform="translate(113.2241,202.2944)"><path
             d="m 0,0 c 59.514,31.099 120.445,29.371 134.332,4.884 10.114,-17.827 -9.81,-48.126 -44.36,-75.293 l -3.58,5.44 c 31.944,24.233 52.615,51.11 43.731,66.769 -12.445,21.936 -56.796,15.842 -117.118,-11.516 -60.328,-27.356 -104.796,-71.15 -91.239,-92.159 13.491,-20.907 68.096,-17.946 121.155,9.525 l 2.997,-6.395 C -13.604,-129.844 -74.126,-123.631 -86.277,-100.387 -98.417,-77.145 -59.522,-31.102 0,0"
             style="fill:#ed1c24;fill-opacity:1;fill-rule:evenodd;stroke:none"
             id="path26"
             inkscape:connector-curvature="0" /></g><g
           id="g28"
           transform="translate(73.7949,177.3022)"><path
             d="m 0,0 0,0 c 2.803,2.076 5.603,4.062 8.395,5.996 -0.46,4.255 -2.233,6.381 -5.31,6.381 -2.397,0 -5.088,-1.06 -8.076,-3.193 C -2.398,7.453 -0.729,4.394 0,0 m -40.793,-6.274 -5.795,-29.188 c -1.088,-5.527 -1.634,-9.71 -1.634,-12.529 0,-4.236 1.2,-7.193 3.595,-8.888 -2.753,-1.075 -5.274,-1.602 -7.563,-1.602 -3.411,0 -5.108,1.57 -5.108,4.695 0,2.977 1.806,12.237 5.43,27.758 l 6.789,29.093 -1.32,3.569 c -1.785,4.823 -4.049,7.734 -6.742,8.697 4.67,2.164 7.629,3.241 8.838,3.241 2.04,0 3.569,-0.952 4.577,-2.849 1.029,-1.9 5.499,-12.223 13.44,-30.977 8.914,-21.062 14.789,-31.6 17.617,-31.6 2.101,0 4.148,4.482 6.138,13.434 1.31,5.945 2.192,12.006 2.637,18.176 2.369,1.765 4.772,3.479 7.197,5.15 -0.338,-2.42 -0.744,-5.052 -1.226,-7.898 -1.619,-9.672 -3.379,-17.797 -5.264,-24.395 -3.094,-10.727 -6.555,-16.094 -10.35,-16.094 -3.286,0 -6.803,2.893 -10.57,8.686 -3.75,5.789 -8.762,16.03 -15.022,30.711 -2.044,4.732 -3.425,7.907 -4.157,9.524 l -1.507,3.286 z"
             style="fill:#000000;fill-opacity:1;fill-rule:evenodd;stroke:none"
             id="path30"
             inkscape:connector-curvature="0" /></g><g
           id="g32"
           transform="translate(150.1426,159.2251)"><path
             d="m 0,0 0,0 c 3.83,0.201 7.101,1.334 9.836,3.359 2.73,2.04 4.101,4.396 4.101,7.067 0,2.389 -1.044,3.59 -3.128,3.59 -2.485,0 -4.779,-1.37 -6.883,-4.099 C 1.829,7.189 0.519,3.887 0,0 m 38.241,-4.983 c -3.72,-5.236 -6.034,-10.291 -6.938,-15.177 -2.199,1.391 -3.286,2.779 -3.286,4.175 0,2.881 2.863,7.447 8.59,13.691 -1.265,2.179 -2.461,4.841 -3.576,7.975 C 29.71,0.157 25.611,-4.507 20.736,-8.326 15.011,-12.812 9.571,-15.053 4.447,-15.053 c -3.295,0 -5.895,1.078 -7.808,3.253 -1.91,2.164 -2.856,5.128 -2.856,8.883 0,5.417 1.726,10.061 5.193,13.907 3.461,3.849 7.627,5.773 12.516,5.773 2.358,0 4.249,-0.603 5.663,-1.82 1.41,-1.215 2.124,-2.844 2.124,-4.884 0,-3.337 -1.967,-6.307 -5.9,-8.879 -3.942,-2.58 -8.472,-3.869 -13.596,-3.869 0,-5.475 2.265,-8.212 6.795,-8.212 3.93,0 8.266,1.914 13,5.741 4.533,3.672 8.642,8.456 12.321,14.353 -0.451,1.607 -0.676,2.862 -0.676,3.759 0,1.531 1.824,2.621 5.467,3.256 -0.127,-0.414 -0.194,-0.786 -0.194,-1.121 0,-3.407 1.423,-7.916 4.274,-13.544 4.764,5.608 7.147,10.07 7.147,13.372 l -0.029,0.363 c 0.229,0.018 0.724,0.058 1.516,0.115 l 0.324,0 c 1.965,0 2.964,-0.546 2.964,-1.627 0,-2.69 -3.514,-7.592 -10.524,-14.696 2.723,-4.333 5.632,-6.497 8.713,-6.497 5.495,0 11.375,5.801 17.627,17.41 l 2.3,-1.347 C 66.737,1.199 62.98,-4.201 59.569,-7.569 c -3.414,-3.362 -6.869,-5.045 -10.356,-5.045 -4.148,0 -7.808,2.547 -10.972,7.631"
             style="fill:#000000;fill-opacity:1;fill-rule:nonzero;stroke:none"
             id="path34"
             inkscape:connector-curvature="0" /></g><g
           id="g36"
           transform="translate(92.6226,159.2251)"><path
             d="m 0,0 0,0 c 3.83,0.201 7.103,1.334 9.837,3.359 2.732,2.04 4.091,4.396 4.091,7.067 0,2.389 -1.029,3.59 -3.116,3.59 -2.491,0 -4.787,-1.37 -6.887,-4.099 C 1.824,7.189 0.516,3.887 0,0 m 47.863,-3.253 c 0.5,-0.909 0.741,-1.713 0.741,-2.411 0,-1.831 -1.51,-3.848 -4.539,-6.071 -3.024,-2.206 -5.771,-3.318 -8.252,-3.318 -2.196,0 -3.984,1.004 -5.375,3.004 -1.372,2.004 -2.068,4.573 -2.068,7.734 0,1.098 0.097,2.344 0.269,3.735 -2.352,-2.886 -4.989,-5.467 -7.897,-7.746 -5.733,-4.486 -11.167,-6.727 -16.298,-6.727 -3.296,0 -5.89,1.078 -7.801,3.253 -1.908,2.164 -2.868,5.128 -2.868,8.883 0,5.417 1.737,10.061 5.198,13.907 3.464,3.849 7.632,5.773 12.521,5.773 2.361,0 4.249,-0.603 5.655,-1.82 1.417,-1.215 2.127,-2.844 2.127,-4.884 0,-3.337 -1.963,-6.307 -5.903,-8.879 -3.935,-2.58 -8.468,-3.869 -13.589,-3.869 0,-5.475 2.271,-8.212 6.8,-8.212 3.927,0 8.257,1.914 12.994,5.741 3.74,3.025 7.183,6.81 10.347,11.351 0.33,1.412 0.721,2.912 1.16,4.498 l 1.263,4.713 -4.629,0 c -1.938,0 -3.481,-0.276 -4.633,-0.84 1.057,1.978 1.938,3.224 2.63,3.729 0.694,0.51 1.871,0.758 3.537,0.758 l 4.138,0 0.55,1.937 c 0.828,2.878 1.846,4.848 3.01,5.93 1.174,1.072 2.922,1.609 5.258,1.609 0.283,0 0.724,-0.021 1.328,-0.057 -1.427,-1.866 -2.915,-5.006 -4.442,-9.419 l 14.479,0 c 2.533,0 4.469,0.336 5.81,1.008 -0.458,-1.927 -1.067,-3.18 -1.826,-3.775 -0.756,-0.583 -2.169,-0.88 -4.239,-0.88 l -15.408,0 C 37.731,14.789 37.593,14.332 37.494,14.026 35.29,6.328 34.18,0.509 34.18,-3.414 c 0,-4.339 1.523,-6.509 4.581,-6.509 1.571,0 3.292,0.678 5.143,2.047 1.852,1.368 3.172,2.91 3.959,4.623"
             style="fill:#000000;fill-opacity:1;fill-rule:nonzero;stroke:none"
             id="path38"
             inkscape:connector-curvature="0" /></g></g></g></g></svg>